<svg xmlns="http://www.w3.org/2000/svg" width="24" height="24" viewBox="0 0 24 24">
    <path data-name="Rectangle 701" style="fill:none" d="M0 0h24v24H0z"/>
    <g data-name="Group 1086">
        <path data-name="Rectangle 702" d="M7 0h0a7 7 0 0 1 7 7v6a1 1 0 0 1-1 1H1a1 1 0 0 1-1-1V7a7 7 0 0 1 7-7z" transform="translate(5 4)" style="stroke-linejoin:round;stroke-linecap:round;stroke-width:2px;stroke:#2b2b2b;fill:none"/>
        <g data-name="Ellipse 152" transform="translate(10.5 1)" style="fill:#2b2b2b;stroke:#2b2b2b">
            <circle cx="1.5" cy="1.5" r="1.5" style="stroke:none"/>
            <circle cx="1.5" cy="1.5" r="1" style="fill:none"/>
        </g>
        <path data-name="Subtraction 1" d="M20986.5 21178.5a2.5 2.5 0 0 1-2.5-2.508h5a2.506 2.506 0 0 1-2.5 2.508z" transform="translate(-20974.504 -21155.996)" style="fill:#2b2b2b"/>
        <path data-name="Path 1897" d="M-20372-20081h18" transform="translate(20375 20099)" style="stroke-linecap:round;stroke-width:2px;stroke:#2b2b2b;fill:none"/>
    </g>
</svg>
