<svg xmlns="http://www.w3.org/2000/svg" width="32.594" height="32" viewBox="0 0 32.594 32">
    <path data-name="Rectangle 749" style="fill:none" d="M0 0h32v32H0z" transform="translate(.094)"/>
    <g data-name="Group 1318">
        <path data-name="Subtraction 4" d="M20855.3 20376.092h-20.41a3.8 3.8 0 0 1-3.748-3.193 4.144 4.144 0 0 0 1.262.193h15.076l8.615-8.889v-6.025a3.813 3.813 0 0 1 3 3.713v10.406a3.8 3.8 0 0 1-3.795 3.795z" transform="translate(-20827 -20348.094)" style="stroke-miterlimit:10;fill:#102781;stroke:transparent"/>
        <path data-name="Path 1955" d="M20.479 21.094H5.4a4.378 4.378 0 0 1-4.306-4.444V5.538A4.378 4.378 0 0 1 5.4 1.094h19.386a4.378 4.378 0 0 1 4.308 4.444V12.2z" style="fill:none" transform="translate(0 3.906)"/>
        <path data-name="Path 1957" d="M19.159 11.594h-.13a.937.937 0 0 1-.935-.935v-5.13a.937.937 0 0 1 .935-.935h.13a.938.938 0 0 1 .935.935v5.13a.938.938 0 0 1-.935.935" style="fill:#58a500" transform="translate(0 3.906)"/>
        <path data-name="Path 1958" d="M16.159 11.594h-.13a.938.938 0 0 1-.935-.935v-5.13a.938.938 0 0 1 .935-.935h.13a.938.938 0 0 1 .935.935v5.13a.938.938 0 0 1-.935.935" style="fill:#58a500" transform="translate(0 3.906)"/>
        <path data-name="Path 1959" d="M13.158 11.594h-.129a.938.938 0 0 1-.936-.935v-5.13a.938.938 0 0 1 .936-.935h.129a.938.938 0 0 1 .935.935v5.13a.938.938 0 0 1-.935.935" style="fill:#58a500" transform="translate(0 3.906)"/>
        <path data-name="Path 1960" d="M10.158 11.594h-.129a.938.938 0 0 1-.936-.935v-5.13a.938.938 0 0 1 .936-.935h.129a.938.938 0 0 1 .935.935v5.13a.938.938 0 0 1-.935.935" style="fill:#58a500" transform="translate(0 3.906)"/>
        <path data-name="Path 1961" d="M7.159 11.594H7.03a.938.938 0 0 1-.936-.935v-5.13a.938.938 0 0 1 .936-.935h.129a.938.938 0 0 1 .935.935v5.13a.938.938 0 0 1-.935.935" style="fill:#58a500" transform="translate(0 3.906)"/>
        <path data-name="Path 1962" d="M21.094 21.094v-6a2.006 2.006 0 0 1 2-2h6" style="stroke-width:2px;stroke:#102781;stroke-miterlimit:10;fill:none" transform="translate(0 3.906)"/>
        <path data-name="Path 1963" d="M20.479 21.094H5.4a4.378 4.378 0 0 1-4.306-4.444V5.538A4.378 4.378 0 0 1 5.4 1.094h19.386a4.378 4.378 0 0 1 4.308 4.444V12.2z" style="stroke-width:2.188px;stroke:#102781;stroke-miterlimit:10;fill:none" transform="translate(0 3.906)"/>
    </g>
</svg>
