<svg xmlns="http://www.w3.org/2000/svg" width="32" height="32" viewBox="0 0 32 32">
    <defs>
        <clipPath id="796culavaa">
            <path data-name="Rectangle 666" style="fill:none" d="M0 0h29.688v29.322H0z"/>
        </clipPath>
    </defs>
    <path data-name="Rectangle 749" style="fill:none" d="M0 0h32v32H0z"/>
    <g data-name="Group 1108">
        <g data-name="Group 1015" style="clip-path:url(#796culavaa)" transform="translate(1 1)">
            <path data-name="Path 1811" d="M14.661 29.322A14.642 14.642 0 1 1 28.668 19.01a1.079 1.079 0 0 1-2.062-.64 12.492 12.492 0 1 0-6.975 7.769 1.079 1.079 0 0 1 .857 1.98 14.575 14.575 0 0 1-5.828 1.2" style="fill:#102781"/>
            <path data-name="Path 1812" d="M13.07 16.144H7.859a1.169 1.169 0 1 0 0 2.329h2.606v1.171a1.233 1.233 0 0 0 1.265 1.2 1.25 1.25 0 0 0 1.337-1.135v-1.231a3.721 3.721 0 0 0 3.909-3.5 3.721 3.721 0 0 0-3.906-3.5h-2.605a1.171 1.171 0 1 1-.188-2.334 1.373 1.373 0 0 1 .188 0h5.211a1.248 1.248 0 0 0 1.337-1.135 1.231 1.231 0 0 0-1.266-1.194H13.07V5.65a1.315 1.315 0 0 0-2.606 0v1.158a3.723 3.723 0 0 0-3.908 3.5 3.721 3.721 0 0 0 3.908 3.5h2.606a1.251 1.251 0 0 1 1.338 1.137 1.234 1.234 0 0 1-1.268 1.194h-.07" transform="translate(2.877 1.981)" style="fill:#58a500"/>
            <path data-name="Path 1813" d="M22.718 17.322h-8.257a1.116 1.116 0 1 1 0-2.231h8.257a1.116 1.116 0 0 1 0 2.231" transform="translate(5.855 7.445)" style="fill:#102781"/>
            <path data-name="Path 1814" d="M17.33 22.71a1.114 1.114 0 0 1-1.115-1.11v-8.263a1.115 1.115 0 0 1 2.23 0V21.6a1.114 1.114 0 0 1-1.115 1.11" transform="translate(7.114 6.186)" style="fill:#102781"/>
        </g>
    </g>
</svg>
