<svg xmlns="http://www.w3.org/2000/svg" width="48" height="48" viewBox="0 0 48 48">
    <defs>
        <linearGradient id="rmjs2l2cia" x1=".865" y1=".804" x2=".231" y2=".118" gradientUnits="objectBoundingBox">
            <stop offset="0" stop-color="#fff"/>
            <stop offset="1" stop-color="#e5e5e5"/>
        </linearGradient>
        <filter id="i7v75o23fb" x="0" y="0" width="48" height="48" filterUnits="userSpaceOnUse">
            <feOffset dy="3"/>
            <feGaussianBlur stdDeviation="3" result="blur"/>
            <feFlood flood-color="#fff" flood-opacity=".859" result="color"/>
            <feComposite operator="out" in="SourceGraphic" in2="blur"/>
            <feComposite operator="in" in="color"/>
            <feComposite operator="in" in2="SourceGraphic"/>
        </filter>
    </defs>
    <g data-type="innerShadowGroup">
        <path data-name="Path 1878" d="M24 0A24 24 0 1 1 0 24 24 24 0 0 1 24 0z" style="fill:url(#rmjs2l2cia)"/>
        <g style="filter:url(#i7v75o23fb)">
            <path data-name="Path 1878" d="M24 0A24 24 0 1 1 0 24 24 24 0 0 1 24 0z" style="fill:#fff"/>
        </g>
    </g>
    <g data-name="ic-login">
        <path data-name="Rectangle 707" style="fill:none" d="M0 0h24v24H0z" transform="translate(12 12.002)"/>
        <g data-name="Group 1094">
            <path data-name="Path 1905" d="M-20819.041-19997.352v-6.041h13.834v18h-14v-6.289" transform="translate(20837 20018.395)" style="stroke-linejoin:round;stroke:#8e8e93;stroke-linecap:round;stroke-width:2px;fill:none"/>
            <g data-name="Group 1093">
                <path data-name="Path 1906" d="M-20809.881-19994h12" transform="translate(20824 20018.002)" style="stroke:#8e8e93;stroke-linecap:round;stroke-width:2px;fill:none"/>
                <path data-name="Path 1907" d="m-20816.354-19997.963 3.59 4.043-3.59 4.488" transform="translate(20839 20018.002)" style="stroke-linejoin:round;stroke:#8e8e93;stroke-linecap:round;stroke-width:2px;fill:none"/>
            </g>
        </g>
    </g>
</svg>
